<!DOCTYPE svg PUBLIC "-//W3C//DTD SVG 1.1//EN" 
  "http://www.w3.org/2000/svg">
<svg id="logo" width="1998" height="818" viewBox="0 0 1998 818" fill="none" xmlns="http://www.w3.org/2000/svg">
    <defs>
        <style type="text/css"><![CDATA[
            #logo path{
                /*fill: #ffffff30;*/
                animation: line-anim 15s ease infinite !important;
            }
           
            #logo path:nth-child(2){
                stroke-dasharray: 1345;
                stroke-dashoffset: 1345;
                animation: line-anim 4s ease infinite;
            }


            #logo path:nth-child(3){
                stroke-dasharray: 1248;
                stroke-dashoffset: 1248;
                animation: line-anim 4s ease infinite 0.1s;
            }
            #logo path:nth-child(4){
                stroke-dasharray: 1238;
                stroke-dashoffset:1238;
                animation: line-anim 4s ease forwards 0.6s;
            }
            #logo path:nth-child(5){
                stroke-dasharray: 645;
                stroke-dashoffset: 645;
                animation: line-anim 4s ease forwards 0.9s;
            }
            #logo path:nth-child(6){
                stroke-dasharray: 1519;
                stroke-dashoffset: 1519;
                animation: line-anim 4s ease forwards 1.2s;
            }
            #logo path:nth-child(7){
                stroke-dasharray: 1369;
                stroke-dashoffset: 1369;
                animation: line-anim 4s ease forwards 1.6s;
            }
            #logo path:nth-child(8){
                stroke-dasharray: 1248;
                stroke-dashoffset: 1248;
                animation: line-anim 4s ease forwards 1.9s;
            }
            #logo path:nth-child(9){
                stroke-dasharray: 1311;
                stroke-dashoffset: 1311;
                animation: line-anim 4s ease forwards 2.2s;
            }
            #logo path:nth-child(10){
                stroke-dasharray: 1345;
                stroke-dashoffset: 1345;
                animation: line-anim 4s ease forwards 2.6s;
            }
            #logo path:nth-child(11){
                stroke-dasharray: 1248;
                stroke-dashoffset: 1248;
                animation: line-anim 4s ease forwards 2.9s;
            }
            #logo path:nth-child(12){
                stroke-dasharray: 1163;
                stroke-dashoffset: 1163;
                animation: line-anim 4s ease forwards 3.2s;
            }
            #logo path:nth-child(13){
                stroke-dasharray: 1248;
                stroke-dashoffset: 1248;
                animation: line-anim 4s ease forwards 3.6s;
            }
            #logo path:nth-child(14){
                stroke-dasharray: 832;
                stroke-dashoffset: 832;
                animation: line-anim 4s ease forwards 3.9s;
            }
            #logo path:nth-child(15){
                stroke-dasharray: 1348;
                stroke-dashoffset:1348;
                animation: line-anim 4s ease forwards 4.2s;
            }
            #logo path:nth-child(16){
                stroke-dasharray: 1079;
                stroke-dashoffset: 1079;
                animation: line-anim 4s ease forwards 4.6s;
            }
            #logo path:nth-child(17){
                stroke-dasharray: 1248;
                stroke-dashoffset: 1248;
                animation: line-anim 4s ease forwards 4.9s;
            }
            #logo path:nth-child(18){
                stroke-dasharray: 1311;
                stroke-dashoffset: 1311;
                animation: line-anim 4s ease forwards 5.2s;
            }
            #logo path:nth-child(19){
                stroke-dasharray: 1611;
                stroke-dashoffset: 1611;
                animation: line-anim 4s ease forwards 5.6s;
            }

            #logo path:nth-child(20){
                stroke-dasharray: 1210;
                stroke-dashoffset: 1210;
                animation: line-anim 4s ease forwards 5.9s;
            }
            #logo path:nth-child(21){
                stroke-dasharray: 1369;
                stroke-dashoffset: 1369;
                animation: line-anim 4s ease forwards 6.2s;
            }
            #logo path:nth-child(22){
                stroke-dasharray: 1210;
                stroke-dashoffset: 1210;
                animation: line-anim 4s ease forwards 6.6s;
            }
            #logo path:nth-child(23){
                stroke-dasharray: 1519;
                stroke-dashoffset: 1519;
                animation: line-anim 4s ease forwards 6.9s;
            }
            #logo path:nth-child(24){
                stroke-dasharray: 1248;
                stroke-dashoffset: 1248;
                animation: line-anim 4s ease forwards 7.2s;
            }
            #logo path:nth-child(25){
                stroke-dasharray: 1311;
                stroke-dashoffset: 1311;
                animation: line-anim 4s ease forwards 7.6s;
            }


            @keyframes line-anim{
                from{
                fill: transparent;
                }
                to{
                    stroke-dashoffset: 0;
                    /* fill: white; */
                    
                }
            }
        ]]></style>
    </defs>
      <mask id="path-1-outside-1" maskUnits="userSpaceOnUse" x="0.5" y="0.25" width="1998" height="817" fill="black">
      <rect fill="white" x="0.5" y="0.25" width="1998" height="817"/>
      <path d="M106.5 6.5H1.5V269H106.5C178.875 269 234 212 234 137.75C234 63.5 178.875 6.5 106.5 6.5ZM106.5 211.25H61.5V64.25H106.5C147.75 64.25 176.25 92.75 176.25 137.75C176.25 182.75 147.75 211.25 106.5 211.25Z"/>
      <path d="M327.735 211.25V164.75H421.485V107.75H327.735V64.25H430.86V6.5H267.735V269H432.735V211.25H327.735Z"/>
      <path d="M558.463 274.25C615.463 274.25 655.963 244.25 655.963 193.625C655.963 138.125 611.338 124.25 571.588 112.25C530.713 99.875 524.338 91.625 524.338 79.625C524.338 69.125 533.713 59.75 552.463 59.75C576.463 59.75 588.838 71.375 597.838 90.125L648.463 60.5C629.338 21.875 595.588 1.25 552.463 1.25C507.088 1.25 464.338 30.5 464.338 81.125C464.338 131.375 502.588 150.125 541.588 161C580.963 171.875 595.963 178.25 595.963 194.375C595.963 204.5 588.838 215.75 560.338 215.75C530.713 215.75 514.588 201.125 505.213 179.375L453.463 209.375C468.088 248 503.338 274.25 558.463 274.25Z"/>
      <path d="M684.117 6.5V269H744.117V6.5H684.117Z"/>
      <path d="M1049.09 122.75H917.47V175.25H987.595C978.22 200.375 955.345 215.75 920.47 215.75C869.47 215.75 837.97 183.125 837.97 138.5C837.97 92.375 870.97 59.75 915.22 59.75C944.845 59.75 968.47 73.25 979.345 90.5L1030.34 61.25C1008.22 26 965.845 1.25 915.595 1.25C838.345 1.25 777.97 62 777.97 138.125C777.97 213.5 837.22 274.25 919.72 274.25C993.22 274.25 1049.09 225.5 1049.09 145.25V122.75Z"/>
      <path d="M1229.17 6.5V149L1127.92 6.5H1082.92V269H1142.92V126.5L1244.17 269H1289.17V6.5H1229.17Z"/>
      <path d="M1394.14 211.25V164.75H1487.89V107.75H1394.14V64.25H1497.27V6.5H1334.14V269H1499.14V211.25H1394.14Z"/>
      <path d="M1670.99 269H1735.49L1679.62 172.625C1708.49 158 1727.99 128.75 1727.99 96.5C1727.99 46.625 1687.87 6.5 1637.99 6.5H1532.99V269H1592.99V182.75H1621.49L1670.99 269ZM1592.99 62.75H1637.99C1654.49 62.75 1667.99 77.375 1667.99 96.5C1667.99 115.625 1654.49 130.25 1637.99 130.25H1592.99V62.75Z"/>
      <path d="M106.5 277.5H1.5V540H106.5C178.875 540 234 483 234 408.75C234 334.5 178.875 277.5 106.5 277.5ZM106.5 482.25H61.5V335.25H106.5C147.75 335.25 176.25 363.75 176.25 408.75C176.25 453.75 147.75 482.25 106.5 482.25Z"/>
      <path d="M327.735 482.25V435.75H421.485V378.75H327.735V335.25H430.86V277.5H267.735V540H432.735V482.25H327.735Z"/>
      <path d="M529.588 540H606.088L691.588 277.5H625.963L567.838 470.625L509.713 277.5H444.088L529.588 540Z"/>
      <path d="M774.146 482.25V435.75H867.896V378.75H774.146V335.25H877.271V277.5H714.146V540H879.146V482.25H774.146Z"/>
      <path d="M972.999 482.25V277.5H912.999V540H1066.75V482.25H972.999Z"/>
      <path d="M1203.41 545.25C1278.79 545.25 1339.91 486 1339.91 408.75C1339.91 331.5 1278.79 272.25 1203.41 272.25C1128.04 272.25 1066.91 331.5 1066.91 408.75C1066.91 486 1128.04 545.25 1203.41 545.25ZM1203.41 486.75C1160.66 486.75 1126.91 455.625 1126.91 408.75C1126.91 361.875 1160.66 330.75 1203.41 330.75C1246.16 330.75 1279.91 361.875 1279.91 408.75C1279.91 455.625 1246.16 486.75 1203.41 486.75Z"/>
      <path d="M1473.07 277.5H1373.69V540H1433.69V457.5H1473.07C1524.82 457.5 1564.94 417.375 1564.94 367.5C1564.94 317.625 1524.82 277.5 1473.07 277.5ZM1473.07 401.25H1433.69V333.75H1473.07C1491.44 333.75 1504.94 348.375 1504.94 367.5C1504.94 386.625 1491.44 401.25 1473.07 401.25Z"/>
      <path d="M1654.88 482.25V435.75H1748.63V378.75H1654.88V335.25H1758.01V277.5H1594.88V540H1759.88V482.25H1654.88Z"/>
      <path d="M1931.74 540H1996.24L1940.36 443.625C1969.24 429 1988.74 399.75 1988.74 367.5C1988.74 317.625 1948.61 277.5 1898.74 277.5H1793.74V540H1853.74V453.75H1882.24L1931.74 540ZM1853.74 333.75H1898.74C1915.24 333.75 1928.74 348.375 1928.74 367.5C1928.74 386.625 1915.24 401.25 1898.74 401.25H1853.74V333.75Z"/>
      <path d="M264 548.5H204L132.75 665.125L61.5 548.5H1.5V811H61.5V658.375L129.375 769.75H136.125L204 658.375V811H264V548.5Z"/>
      <path d="M475.992 811H541.617L452.367 548.5H375.867L286.617 811H352.242L365.367 769.75H462.867L475.992 811ZM383.367 713.5L414.117 617.125L444.867 713.5H383.367Z"/>
      <path d="M710.25 548.5V691L609 548.5H564V811H624V668.5L725.25 811H770.25V548.5H710.25Z"/>
      <path d="M982.096 811H1047.72L958.471 548.5H881.971L792.721 811H858.346L871.471 769.75H968.971L982.096 811ZM889.471 713.5L920.221 617.125L950.971 713.5H889.471Z"/>
      <path d="M1320.46 664.75H1188.83V717.25H1258.96C1249.58 742.375 1226.71 757.75 1191.83 757.75C1140.83 757.75 1109.33 725.125 1109.33 680.5C1109.33 634.375 1142.33 601.75 1186.58 601.75C1216.21 601.75 1239.83 615.25 1250.71 632.5L1301.71 603.25C1279.58 568 1237.21 543.25 1186.96 543.25C1109.71 543.25 1049.33 604 1049.33 680.125C1049.33 755.5 1108.58 816.25 1191.08 816.25C1264.58 816.25 1320.46 767.5 1320.46 687.25V664.75Z"/>
      <path d="M1414.28 753.25V706.75H1508.03V649.75H1414.28V606.25H1517.41V548.5H1354.28V811H1519.28V753.25H1414.28Z"/>
      <path d="M1691.14 811H1755.64L1699.76 714.625C1728.64 700 1748.14 670.75 1748.14 638.5C1748.14 588.625 1708.01 548.5 1658.14 548.5H1553.14V811H1613.14V724.75H1641.64L1691.14 811ZM1613.14 604.75H1658.14C1674.64 604.75 1688.14 619.375 1688.14 638.5C1688.14 657.625 1674.64 672.25 1658.14 672.25H1613.14V604.75Z"/>
      </mask>
      <path d="M106.5 6.5H1.5V269H106.5C178.875 269 234 212 234 137.75C234 63.5 178.875 6.5 106.5 6.5ZM106.5 211.25H61.5V64.25H106.5C147.75 64.25 176.25 92.75 176.25 137.75C176.25 182.75 147.75 211.25 106.5 211.25Z" stroke="white" stroke-width="2" mask="url(#path-1-outside-1)"/>
      <path d="M327.735 211.25V164.75H421.485V107.75H327.735V64.25H430.86V6.5H267.735V269H432.735V211.25H327.735Z" stroke="white" stroke-width="2" mask="url(#path-1-outside-1)"/>
      <path d="M558.463 274.25C615.463 274.25 655.963 244.25 655.963 193.625C655.963 138.125 611.338 124.25 571.588 112.25C530.713 99.875 524.338 91.625 524.338 79.625C524.338 69.125 533.713 59.75 552.463 59.75C576.463 59.75 588.838 71.375 597.838 90.125L648.463 60.5C629.338 21.875 595.588 1.25 552.463 1.25C507.088 1.25 464.338 30.5 464.338 81.125C464.338 131.375 502.588 150.125 541.588 161C580.963 171.875 595.963 178.25 595.963 194.375C595.963 204.5 588.838 215.75 560.338 215.75C530.713 215.75 514.588 201.125 505.213 179.375L453.463 209.375C468.088 248 503.338 274.25 558.463 274.25Z" stroke="white" stroke-width="2" mask="url(#path-1-outside-1)"/>
      <path d="M684.117 6.5V269H744.117V6.5H684.117Z" stroke="white" stroke-width="2" mask="url(#path-1-outside-1)"/>
      <path d="M1049.09 122.75H917.47V175.25H987.595C978.22 200.375 955.345 215.75 920.47 215.75C869.47 215.75 837.97 183.125 837.97 138.5C837.97 92.375 870.97 59.75 915.22 59.75C944.845 59.75 968.47 73.25 979.345 90.5L1030.34 61.25C1008.22 26 965.845 1.25 915.595 1.25C838.345 1.25 777.97 62 777.97 138.125C777.97 213.5 837.22 274.25 919.72 274.25C993.22 274.25 1049.09 225.5 1049.09 145.25V122.75Z" stroke="white" stroke-width="2" mask="url(#path-1-outside-1)"/>
      <path d="M1229.17 6.5V149L1127.92 6.5H1082.92V269H1142.92V126.5L1244.17 269H1289.17V6.5H1229.17Z" stroke="white" stroke-width="2" mask="url(#path-1-outside-1)"/>
      <path d="M1394.14 211.25V164.75H1487.89V107.75H1394.14V64.25H1497.27V6.5H1334.14V269H1499.14V211.25H1394.14Z" stroke="white" stroke-width="2" mask="url(#path-1-outside-1)"/>
      <path d="M1670.99 269H1735.49L1679.62 172.625C1708.49 158 1727.99 128.75 1727.99 96.5C1727.99 46.625 1687.87 6.5 1637.99 6.5H1532.99V269H1592.99V182.75H1621.49L1670.99 269ZM1592.99 62.75H1637.99C1654.49 62.75 1667.99 77.375 1667.99 96.5C1667.99 115.625 1654.49 130.25 1637.99 130.25H1592.99V62.75Z" stroke="white" stroke-width="2" mask="url(#path-1-outside-1)"/>
      <path d="M106.5 277.5H1.5V540H106.5C178.875 540 234 483 234 408.75C234 334.5 178.875 277.5 106.5 277.5ZM106.5 482.25H61.5V335.25H106.5C147.75 335.25 176.25 363.75 176.25 408.75C176.25 453.75 147.75 482.25 106.5 482.25Z" stroke="white" stroke-width="2" mask="url(#path-1-outside-1)"/>
      <path d="M327.735 482.25V435.75H421.485V378.75H327.735V335.25H430.86V277.5H267.735V540H432.735V482.25H327.735Z" stroke="white" stroke-width="2" mask="url(#path-1-outside-1)"/>
      <path d="M529.588 540H606.088L691.588 277.5H625.963L567.838 470.625L509.713 277.5H444.088L529.588 540Z" stroke="white" stroke-width="2" mask="url(#path-1-outside-1)"/>
      <path d="M774.146 482.25V435.75H867.896V378.75H774.146V335.25H877.271V277.5H714.146V540H879.146V482.25H774.146Z" stroke="white" stroke-width="2" mask="url(#path-1-outside-1)"/>
      <path d="M972.999 482.25V277.5H912.999V540H1066.75V482.25H972.999Z" stroke="white" stroke-width="2" mask="url(#path-1-outside-1)"/>
      <path d="M1203.41 545.25C1278.79 545.25 1339.91 486 1339.91 408.75C1339.91 331.5 1278.79 272.25 1203.41 272.25C1128.04 272.25 1066.91 331.5 1066.91 408.75C1066.91 486 1128.04 545.25 1203.41 545.25ZM1203.41 486.75C1160.66 486.75 1126.91 455.625 1126.91 408.75C1126.91 361.875 1160.66 330.75 1203.41 330.75C1246.16 330.75 1279.91 361.875 1279.91 408.75C1279.91 455.625 1246.16 486.75 1203.41 486.75Z" stroke="white" stroke-width="2" mask="url(#path-1-outside-1)"/>
      <path d="M1473.07 277.5H1373.69V540H1433.69V457.5H1473.07C1524.82 457.5 1564.94 417.375 1564.94 367.5C1564.94 317.625 1524.82 277.5 1473.07 277.5ZM1473.07 401.25H1433.69V333.75H1473.07C1491.44 333.75 1504.94 348.375 1504.94 367.5C1504.94 386.625 1491.44 401.25 1473.07 401.25Z" stroke="white" stroke-width="2" mask="url(#path-1-outside-1)"/>
      <path d="M1654.88 482.25V435.75H1748.63V378.75H1654.88V335.25H1758.01V277.5H1594.88V540H1759.88V482.25H1654.88Z" stroke="white" stroke-width="2" mask="url(#path-1-outside-1)"/>
      <path d="M1931.74 540H1996.24L1940.36 443.625C1969.24 429 1988.74 399.75 1988.74 367.5C1988.74 317.625 1948.61 277.5 1898.74 277.5H1793.74V540H1853.74V453.75H1882.24L1931.74 540ZM1853.74 333.75H1898.74C1915.24 333.75 1928.74 348.375 1928.74 367.5C1928.74 386.625 1915.24 401.25 1898.74 401.25H1853.74V333.75Z" stroke="white" stroke-width="2" mask="url(#path-1-outside-1)"/>
      <path d="M264 548.5H204L132.75 665.125L61.5 548.5H1.5V811H61.5V658.375L129.375 769.75H136.125L204 658.375V811H264V548.5Z" stroke="white" stroke-width="2" mask="url(#path-1-outside-1)"/>
      <path d="M475.992 811H541.617L452.367 548.5H375.867L286.617 811H352.242L365.367 769.75H462.867L475.992 811ZM383.367 713.5L414.117 617.125L444.867 713.5H383.367Z" stroke="white" stroke-width="2" mask="url(#path-1-outside-1)"/>
      <path d="M710.25 548.5V691L609 548.5H564V811H624V668.5L725.25 811H770.25V548.5H710.25Z" stroke="white" stroke-width="2" mask="url(#path-1-outside-1)"/>
      <path d="M982.096 811H1047.72L958.471 548.5H881.971L792.721 811H858.346L871.471 769.75H968.971L982.096 811ZM889.471 713.5L920.221 617.125L950.971 713.5H889.471Z" stroke="white" stroke-width="2" mask="url(#path-1-outside-1)"/>
      <path d="M1320.46 664.75H1188.83V717.25H1258.96C1249.58 742.375 1226.71 757.75 1191.83 757.75C1140.83 757.75 1109.33 725.125 1109.33 680.5C1109.33 634.375 1142.33 601.75 1186.58 601.75C1216.21 601.75 1239.83 615.25 1250.71 632.5L1301.71 603.25C1279.58 568 1237.21 543.25 1186.96 543.25C1109.71 543.25 1049.33 604 1049.33 680.125C1049.33 755.5 1108.58 816.25 1191.08 816.25C1264.58 816.25 1320.46 767.5 1320.46 687.25V664.75Z" stroke="white" stroke-width="2" mask="url(#path-1-outside-1)"/>
      <path d="M1414.28 753.25V706.75H1508.03V649.75H1414.28V606.25H1517.41V548.5H1354.28V811H1519.28V753.25H1414.28Z" stroke="white" stroke-width="2" mask="url(#path-1-outside-1)"/>
      <path d="M1691.14 811H1755.64L1699.76 714.625C1728.64 700 1748.14 670.75 1748.14 638.5C1748.14 588.625 1708.01 548.5 1658.14 548.5H1553.14V811H1613.14V724.75H1641.64L1691.14 811ZM1613.14 604.75H1658.14C1674.64 604.75 1688.14 619.375 1688.14 638.5C1688.14 657.625 1674.64 672.25 1658.14 672.25H1613.14V604.75Z" stroke="white" stroke-width="2" mask="url(#path-1-outside-1)"/>
      </svg>